<?xml version="1.0" encoding="utf-8"?>
<!-- Generator: Adobe Illustrator 14.0.0, SVG Export Plug-In . SVG Version: 6.00 Build 43363)  -->
<!DOCTYPE svg PUBLIC "-//W3C//DTD SVG 1.1//EN" "http://www.w3.org/Graphics/SVG/1.1/DTD/svg11.dtd">
<svg version="1.1" id="Layer_1" xmlns="http://www.w3.org/2000/svg" xmlns:xlink="http://www.w3.org/1999/xlink" x="0px" y="0px"
	 width="360px" height="171.641px" viewBox="0 0 360 171.641" enable-background="new 0 0 360 171.641" xml:space="preserve">
<polygon fill="#FAA634" points="26.46,66.03 49.308,26.459 72.172,66.03 "/>
<polygon fill="#1C2674" points="94.977,105.594 72.164,65.994 117.859,65.994 "/>
<polygon fill="#EE3124" points="72.202,145.171 49.344,105.594 26.512,145.177 "/>
<polygon fill="#1C2674" points="95.058,105.594 72.202,145.171 49.359,105.594 "/>
<polygon fill="#1C2674" points="72.191,66.026 49.34,105.594 26.491,66.026 "/>
<path fill="#1C2674" d="M233.318,144.935H200.2V65.808h31.787c15.431,0,24.442,8.672,24.442,22.23c0,8.786-5.771,14.448-9.787,16.34
	c4.793,2.217,10.894,7.222,10.894,17.784C257.535,136.939,247.417,144.935,233.318,144.935 M230.756,79.597h-15.114v18.227h15.114
	c6.578,0,10.241-3.669,10.241-9.117C240.997,83.27,237.334,79.597,230.756,79.597 M231.754,111.707h-16.112v19.473h16.112
	c7.003,0,10.353-4.463,10.353-9.791C242.107,116.044,238.758,111.707,231.754,111.707"/>
<path fill="#1C2674" d="M164.491,115.161h-15.219v29.773h-15.445V65.808h30.664c16.351,0,26.119,11.237,26.119,24.677
	C190.61,103.938,180.841,115.161,164.491,115.161 M163.721,79.597h-14.45v21.67h14.45c6.997,0,11.445-4.338,11.445-10.782
	C175.166,84.045,170.718,79.597,163.721,79.597"/>
<polygon fill="#1C2674" points="315.065,144.994 294.734,108.993 284.52,121.218 284.52,144.994 269.043,144.994 269.043,65.866 
	284.52,65.866 284.52,100.322 312.402,65.866 331.182,65.866 304.955,97.316 333.067,144.994 "/>
</svg>
